<svg id="Layer_1" data-name="Layer 1" xmlns="http://www.w3.org/2000/svg" viewBox="0 0 1000 1000"><defs><style>.cls-1,.cls-2,.cls-3{stroke:#000;stroke-miterlimit:10;}.cls-2{stroke-width:0.25px;}.cls-3{stroke-width:3px;}</style></defs><title>bird</title><path class="cls-1" d="M724.85,540c-2.67-12.05-5.75-24.43-9.15-36.8-2.13-7.81-4.5-16-7.07-24.33-3.89-12.74-8.15-25.52-12.65-38-12.13-33.73-30.66-78.32-55.74-120q-3.32-5.53-6.81-11-2.77,5.76-6,11.22,3.25,5.22,6.44,10.67c19,32.4,36.53,70.58,51.72,112.78,4.43,12.31,8.63,24.92,12.48,37.48,2.53,8.24,4.87,16.32,7,24,3.34,12.2,6.38,24.4,9,36.27,8.42,37.9,12.88,72.27,12.88,99.41A232.21,232.21,0,0,1,675.8,787.42c-1.52,1.91-3.1,3.81-4.68,5.65A232.95,232.95,0,0,1,261.05,641.76c0-48,14.76-117.52,39.49-186.14,14.82-41.14,33.77-83.29,55.82-120.42q3.15-5.29,6.38-10.45-3.28-5.29-6.16-10.84c-2.26,3.52-4.5,7.1-6.72,10.77-22.18,36.45-42.77,80.2-59.7,127.2C265,521.62,250,592.61,250,641.76a244,244,0,0,0,429.5,158.49c1.66-1.93,3.3-3.93,4.9-5.92A242.94,242.94,0,0,0,738,641.76C738,613.82,733.45,578.62,724.85,540Z"/><path class="cls-1" d="M494,73.79c-91.32,0-165.61,74.29-165.61,165.61a164.59,164.59,0,0,0,21.46,81.48q3.06,5.4,6.5,10.52A165.52,165.52,0,0,0,633.88,328q3.38-5.33,6.36-10.92a164.64,164.64,0,0,0,19.37-77.68C659.61,148.08,585.32,73.79,494,73.79ZM633.43,306.1q-2.77,5.77-6,11.23a154.49,154.49,0,0,1-264.7,3.61q-3.28-5.28-6.16-10.83a153.64,153.64,0,0,1-17.14-70.71c0-85.24,69.33-154.57,154.57-154.57S648.57,154.16,648.57,239.4A153.67,153.67,0,0,1,633.43,306.1Z"/><path class="cls-1" d="M497.63,213.56A39.75,39.75,0,1,0,462.54,272a39.34,39.34,0,0,0,15.4-3.12,36.78,36.78,0,0,0,4.13-2,37.25,37.25,0,0,0,5.34-3.64,3.73,3.73,0,0,0,.46-.37A39.95,39.95,0,0,0,497,252c.09-.15.16-.3.25-.45a39.63,39.63,0,0,0,.37-38ZM472.1,259.28a28.28,28.28,0,0,1-9.56,1.65,28.72,28.72,0,1,1,9.56-1.65Z"/><path class="cls-1" d="M463.09,209.59a23.19,23.19,0,1,0,23.19,23.18A23.21,23.21,0,0,0,463.09,209.59Zm0,35.33a12.15,12.15,0,1,1,12.15-12.15A12.15,12.15,0,0,1,463.09,244.92Z"/><path class="cls-1" d="M515.35,256.62l-15.17.35a39.2,39.2,0,0,0,4.86,5.44c.69.65,1.41,1.27,2.15,1.85a37.38,37.38,0,0,0,3.73,2.68l5.3-9.71C515.92,257,515.63,256.83,515.35,256.62Zm-17.72-43.06a39.65,39.65,0,0,0-.85,38c.07.14.15.3.23.44.09-.15.16-.3.25-.45a39.63,39.63,0,0,0,.37-38Z"/><path class="cls-1" d="M571.84,233.32a39.7,39.7,0,0,1-60.92,33.62l5.3-9.71a28.91,28.91,0,0,0,5.78,3,28.73,28.73,0,1,0-12.33-9,29,29,0,0,0,5.68,5.39l-15.17.35a40.89,40.89,0,0,1-3.17-5c.09-.15.16-.3.25-.45a39.63,39.63,0,0,0,.37-38,39.73,39.73,0,0,1,74.21,19.76Z"/><path class="cls-2" d="M532.1,210.14a23.19,23.19,0,1,0,23.18,23.18A23.21,23.21,0,0,0,532.1,210.14Zm0,35.33a12.15,12.15,0,1,1,12.14-12.15A12.15,12.15,0,0,1,532.1,245.47Z"/><rect class="cls-3" x="478.64" y="880.79" width="19.87" height="110.41"/><path class="cls-1" d="M516.22,261c-.3-.2-.59-.4-.87-.61a28.74,28.74,0,0,1-5.68-5.39l-12.41.3h-.48l-13.33.32a28.36,28.36,0,0,1-11.35,7.42l5.84,9.58,20.75,34,18-32.93L522,264A28.39,28.39,0,0,1,516.22,261ZM498.16,284.6,487.41,267l-.21-.35h.67l17.17-.41,3.21-.08-1.06,1.93Z"/><path class="cls-1" d="M970.53,621.34c0,97.64-49.2,189.52-138.53,258.72C742.25,949.6,622.85,987.89,495.79,987.89S249.32,949.6,159.57,880.06C70.24,810.86,21,719,21,621.34H10c0,51.16,12.93,100.78,38.42,147.47,24.56,45,59.68,85.34,104.39,120,91.67,71,213.47,110.13,343,110.13s251.3-39.12,343-110.13c44.71-34.65,79.83-75,104.39-120,25.49-46.69,38.42-96.31,38.42-147.47Z"/><path class="cls-1" d="M509.74,13.87a44.46,44.46,0,0,0-6.77-10,44.19,44.19,0,0,0-22.35,72.45,44.13,44.13,0,0,0,29.12-62.47ZM484.68,63.19A33.05,33.05,0,0,1,498.91,17a33,33,0,0,1-14.23,46.15Z"/><path class="cls-1" d="M531.28,60.84a30.37,30.37,0,0,0,2.17-8.05,31.09,31.09,0,0,0-7.38-3.86,30.52,30.52,0,0,0-40.6,24.88,31.35,31.35,0,0,0,7.39,3.86,30.46,30.46,0,0,0,38.42-16.83ZM494.18,70a22.82,22.82,0,0,1,30.56-13.38A22.81,22.81,0,0,1,494.18,70Z"/></svg>